<?xml version="1.0" encoding="utf-8"?>
<!-- Generator: Adobe Illustrator 15.1.0, SVG Export Plug-In . SVG Version: 6.00 Build 0)  -->
<!DOCTYPE svg PUBLIC "-//W3C//DTD SVG 1.1//EN" "http://www.w3.org/Graphics/SVG/1.1/DTD/svg11.dtd">
<svg version="1.1" id="Ebene_1" xmlns="http://www.w3.org/2000/svg" xmlns:xlink="http://www.w3.org/1999/xlink" x="0px" y="0px"
	 width="100px" height="183px" viewBox="0 0 100 183" enable-background="new 0 0 100 183" xml:space="preserve">
<circle opacity="0.5" fill="#FFFFFF" cx="48" cy="43" r="35"/>
<linearGradient id="black_play_button_1_" gradientUnits="userSpaceOnUse" x1="18.6729" y1="72.0342" x2="76.5684" y2="14.1387">
	<stop  offset="0.638" style="stop-color:#0F0F0F"/>
	<stop  offset="1" style="stop-color:#000000"/>
</linearGradient>
<path id="black_play_button" fill="url(#black_play_button_1_)" d="M47.6,2.2c5.7,0,11,1.1,15.9,3.2c5,2.1,9.3,5.1,13,8.8
	c3.7,3.7,6.6,8,8.8,13c2.1,5,3.2,10.3,3.2,16c0,5.7-1.1,11-3.2,15.9c-2.1,5-5,9.3-8.8,13c-3.7,3.7-8.1,6.6-13,8.8
	c-5,2.1-10.3,3.2-15.9,3.2c-5.7,0-11-1.1-15.9-3.2c-5-2.1-9.3-5.1-13-8.8c-3.7-3.7-6.6-8-8.8-13c-2.1-5-3.2-10.3-3.2-15.9
	c0-5.7,1.1-11,3.2-16c2.1-5,5-9.3,8.8-13c3.7-3.7,8-6.6,13-8.8C36.7,3.2,42,2.2,47.6,2.2z M47.6,71.7c4,0,7.7-0.8,11.2-2.3
	c3.4-1.5,6.5-3.6,9.1-6.1c2.6-2.6,4.6-5.6,6.1-9.1c1.5-3.4,2.3-7.2,2.3-11.2c0-4-0.8-7.7-2.3-11.2c-1.5-3.4-3.6-6.5-6.1-9.1
	c-2.6-2.6-5.6-4.6-9.1-6.1c-3.5-1.5-7.2-2.3-11.1-2.3c-4,0-7.7,0.8-11.2,2.3c-3.5,1.5-6.5,3.6-9.1,6.1c-2.6,2.6-4.6,5.6-6.1,9.1
	c-1.5,3.4-2.2,7.2-2.2,11.2c0,4,0.8,7.7,2.2,11.2c1.5,3.4,3.6,6.5,6.1,9.1c2.6,2.6,5.6,4.6,9.1,6.1C39.9,71,43.6,71.7,47.6,71.7z
	 M66.8,41.7c0.5,0.2,0.8,0.7,0.8,1.4c0,0.7-0.3,1.1-0.8,1.4L38.9,60.6c-0.3,0.1-0.5,0.2-0.8,0.2c-0.3,0-0.5-0.1-0.8-0.2
	c-0.5-0.3-0.8-0.8-0.8-1.4V27.1c0-0.6,0.3-1.1,0.8-1.5c0.7-0.3,1.2-0.3,1.6,0L66.8,41.7z"/>
<linearGradient id="red_play_button_2_" gradientUnits="userSpaceOnUse" x1="18.7231" y1="160.0342" x2="76.619" y2="102.1383">
	<stop  offset="0.638" style="stop-color:#7B1617"/>
	<stop  offset="1" style="stop-color:#BC2A26"/>
</linearGradient>
<path id="red_play_button_1_" fill="url(#red_play_button_2_)" d="M47.7,90.2c5.7,0,11,1.1,15.9,3.2c5,2.1,9.3,5.1,13,8.8
	c3.7,3.7,6.6,8,8.8,13c2.1,5,3.2,10.3,3.2,16c0,5.7-1.1,11-3.2,15.9c-2.1,5-5,9.3-8.8,13c-3.7,3.7-8.1,6.6-13,8.8S53.4,172,47.7,172
	c-5.7,0-11-1.1-15.9-3.2s-9.3-5.1-13-8.8c-3.7-3.7-6.6-8-8.8-13c-2.1-5-3.2-10.3-3.2-15.9c0-5.7,1.1-11,3.2-16c2.1-5,5-9.3,8.8-13
	c3.7-3.7,8-6.6,13-8.8C36.7,91.2,42,90.2,47.7,90.2z M47.7,159.7c4,0,7.7-0.8,11.2-2.3c3.4-1.5,6.5-3.6,9.1-6.1
	c2.6-2.6,4.6-5.6,6.1-9.1c1.5-3.4,2.3-7.2,2.3-11.2c0-4-0.8-7.7-2.3-11.2c-1.5-3.4-3.6-6.5-6.1-9.1c-2.6-2.6-5.6-4.6-9.1-6.1
	c-3.5-1.5-7.2-2.3-11.1-2.3c-4,0-7.7,0.8-11.2,2.3c-3.5,1.5-6.5,3.6-9.1,6.1c-2.6,2.6-4.6,5.6-6.1,9.1c-1.5,3.4-2.2,7.2-2.2,11.2
	c0,4,0.8,7.7,2.2,11.2c1.5,3.4,3.6,6.5,6.1,9.1c2.6,2.6,5.6,4.6,9.1,6.1C40,159,43.7,159.7,47.7,159.7z M66.9,129.7
	c0.5,0.2,0.8,0.7,0.8,1.4c0,0.7-0.3,1.1-0.8,1.4L39,148.6c-0.3,0.1-0.5,0.2-0.8,0.2c-0.3,0-0.5-0.1-0.8-0.2
	c-0.5-0.3-0.8-0.8-0.8-1.4v-32.2c0-0.6,0.3-1.1,0.8-1.5c0.7-0.3,1.2-0.3,1.6,0L66.9,129.7z"/>
</svg>
